# xmcd
#
# Track frame offsets:
#	150
#	14859
#	29854
#	53952
#	72099
#
# Disc length: 1150 seconds
#
# Revision: 0
# Processed by: cddbd v1.5.1PL0 Copyright (c) Steve Scherf et al.
# Submitted via: dBpowerAMP V4.0
#
DISCID=49047c05
DTITLE=Soul Gospel - Get on Board
DYEAR=2002
DGENRE=Gospel
TTITLE0=Get on board
TTITLE1=Michael row the boat ashore
TTITLE2=I'm going home
TTITLE3=I shall never walk alone
TTITLE4=Long as I got King Jesus (I don't need nobody else)
EXTD=Album 5 titre aniiversaire de Soul Gospel distribué lors des concerts publics
EXTT0=
EXTT1=
EXTT2=
EXTT3=
EXTT4=
PLAYORDER=
